<svg width="64" height="64" viewBox="0 0 64 64" fill="none" xmlns="http://www.w3.org/2000/svg">
<circle cx="31.7733" cy="31.7733" r="31.7733" fill="#F4CF42"/>
<path d="M15.272 36.3123V49.9294C15.272 50.3307 15.4364 50.7156 15.729 50.9994C16.0216 51.283 16.4184 51.4424 16.8323 51.4424H48.0382C48.452 51.4424 48.8489 51.283 49.1416 50.9994C49.434 50.7156 49.5985 50.3307 49.5985 49.9294V36.3123" stroke="#58509D" stroke-linecap="round" stroke-linejoin="round"/>
<path d="M35.5559 36.3123V51.4424" stroke="#58509D" stroke-linecap="round" stroke-linejoin="round"/>
<path d="M15.272 40.8514H35.5558" stroke="#58509D" stroke-linecap="round" stroke-linejoin="round"/>
<path d="M12.1514 22.6952L16.8323 12.1041H48.0382L52.719 22.6952H12.1514Z" stroke="#58509D" stroke-linecap="round" stroke-linejoin="round"/>
<path d="M25.5075 22.6952V25.7212C25.5075 27.3263 24.85 28.8657 23.6795 30.0007C22.509 31.1357 20.9216 31.7733 19.2663 31.7733H18.3925C16.7373 31.7733 15.1498 31.1357 13.9794 30.0007C12.8089 28.8657 12.1514 27.3263 12.1514 25.7212V22.6952" stroke="#58509D" stroke-linecap="round" stroke-linejoin="round"/>
<path d="M39.4565 22.6952V25.7212C39.4565 27.3263 38.7989 28.8657 37.6285 30.0007C36.458 31.1357 34.8705 31.7733 33.2153 31.7733H31.655C29.9997 31.7733 28.4123 31.1357 27.2418 30.0007C26.0714 28.8657 25.4138 27.3263 25.4138 25.7212V22.6952" stroke="#58509D" stroke-linecap="round" stroke-linejoin="round"/>
<path d="M52.7191 22.6952V25.7212C52.7191 27.3263 52.0615 28.8657 50.891 30.0007C49.7205 31.1357 48.133 31.7733 46.4779 31.7733H45.6977C44.0426 31.7733 42.4551 31.1357 41.2846 30.0007C40.1141 28.8657 39.4565 27.3263 39.4565 25.7212V22.6952" stroke="#58509D" stroke-linecap="round" stroke-linejoin="round"/>
</svg>
