<svg width="99" height="99" viewBox="0 0 99 99" fill="none" xmlns="http://www.w3.org/2000/svg">
<path d="M37.5209 72.6973L22.9449 84.2179L19.6602 77.8141L37.5209 72.6973Z" fill="#F4CF42"/>
<path d="M58.3044 71.1777L78.5738 80.7559L76.3146 84.5278L58.3044 71.1777Z" fill="#F4CF42"/>
<path d="M78.375 86.625L49.5 66L20.625 86.625V20.625C20.625 18.437 21.4942 16.3385 23.0414 14.7914C24.5885 13.2442 26.687 12.375 28.875 12.375H70.125C72.313 12.375 74.4115 13.2442 75.9586 14.7914C77.5058 16.3385 78.375 18.437 78.375 20.625V86.625Z" stroke="#F4CF42" stroke-width="4" stroke-linecap="round" stroke-linejoin="round"/>
<path d="M21.7917 80.5V19.1667C21.7917 17.0583 22.5669 15.2535 24.1173 13.7521C25.6676 12.2507 27.5313 11.5 29.7084 11.5H69.2917C71.4688 11.5 73.3326 12.2507 74.8829 13.7521C76.4332 15.2535 77.2084 17.0583 77.2084 19.1667V80.5L49.5001 69L21.7917 80.5Z" fill="#F4CF42"/>
</svg>
