<svg width="64" height="64" viewBox="0 0 64 64" fill="none" xmlns="http://www.w3.org/2000/svg">
<circle cx="31.7733" cy="31.7733" r="31.7733" fill="#F4CF42"/>
<path d="M32.4347 48.818C34.6924 48.818 36.5226 46.9878 36.5226 44.7301C36.5226 42.4723 34.6924 40.642 32.4347 40.642C30.1769 40.642 28.3467 42.4723 28.3467 44.7301C28.3467 46.9878 30.1769 48.818 32.4347 48.818Z" stroke="#58509D" stroke-linecap="round" stroke-linejoin="round"/>
<path d="M24.7271 35.5555C25.7418 34.5137 26.9549 33.6857 28.2948 33.1204C29.6347 32.555 31.0742 32.2638 32.5285 32.2638C33.9828 32.2638 35.4224 32.555 36.7623 33.1204C38.1021 33.6857 39.3152 34.5137 40.33 35.5555" stroke="#58509D" stroke-linecap="round" stroke-linejoin="round"/>
<path d="M17.9551 30.2823C19.8546 28.3717 22.1131 26.8555 24.6007 25.8208C27.0884 24.7862 29.756 24.2535 32.4502 24.2535C35.1444 24.2535 37.812 24.7862 40.2997 25.8208C42.7872 26.8555 45.0459 28.3717 46.9454 30.2823" stroke="#58509D" stroke-linecap="round" stroke-linejoin="round"/>
<path d="M12.1509 24.4776C14.8141 21.813 17.9762 19.6993 21.4566 18.2571C24.937 16.815 28.6674 16.0727 32.4347 16.0727C36.202 16.0727 39.9325 16.815 43.413 18.2571C46.8933 19.6993 50.0554 21.813 52.7186 24.4776" stroke="#58509D" stroke-linecap="round" stroke-linejoin="round"/>
</svg>
