<svg width="381" height="42" viewBox="0 0 381 42" fill="none" xmlns="http://www.w3.org/2000/svg">
<path d="M0 30.2073C0 22.973 4.2894 18.5281 16.1968 17.5832L25.6607 16.8575V14.7408C25.6607 10.122 23.3231 7.61987 18.7614 7.61987C14.5855 7.61987 12.0285 9.62311 11.5216 12.9039H1.83831C2.50404 4.83801 9.01757 0 19.2077 0C30.23 0 35.1322 5.11771 35.1322 16.1847V31.5907C35.1322 33.4276 35.692 34.04 37.3034 34.04C37.9162 34.04 38.4155 33.987 38.9753 33.8736H39.1417V41.3801C37.6363 41.6598 36.3048 41.8261 34.7994 41.8261C29.5643 41.8261 27.0603 39.9892 27.0603 35.9827V35.4233H26.8939C24.1099 39.4298 19.5482 41.9849 13.7533 41.9849C5.96128 41.9849 0 37.865 0 30.1922L0 30.2073ZM15.9245 34.486C21.6588 34.486 25.6683 30.6458 25.6683 25.0821V23.2451L17.377 23.9708C11.8091 24.4698 9.86486 26.1404 9.86486 29.5346C9.86486 32.649 12.036 34.486 15.9321 34.486H15.9245Z" fill="#58509D"/>
<path d="M39.6335 20.9698C39.6335 8.89741 47.2591 0 59.454 0C68.9709 0 76.3771 5.56371 77.2698 15.0205H67.473C66.8603 10.568 64.0233 7.84665 59.454 7.84665C52.8876 7.84665 49.6573 13.4633 49.6573 20.9773C49.6573 28.4914 52.827 34.1609 59.454 34.1609C64.0158 34.1609 66.9662 31.432 67.5789 26.3747H77.3757C76.5965 36.3305 68.9709 42.0076 59.454 42.0076C47.0927 42.0076 39.6335 33.0497 39.6335 20.9773V20.9698Z" fill="#58509D"/>
<path d="M78.9946 20.9698C78.9946 8.89741 86.6202 0 98.8151 0C108.332 0 115.738 5.56371 116.631 15.0205H106.834C106.221 10.568 103.384 7.84665 98.8151 7.84665C92.2486 7.84665 89.0184 13.4633 89.0184 20.9773C89.0184 28.4914 92.1881 34.1609 98.8151 34.1609C103.377 34.1609 106.327 31.432 106.94 26.3747H116.737C115.958 36.3305 108.332 42.0076 98.8151 42.0076C86.4538 42.0076 78.9946 33.0497 78.9946 20.9773V20.9698Z" fill="#58509D"/>
<path d="M186.827 41.1609V35.5443H186.661C183.597 39.8305 179.421 42 174.027 42C165.789 42 161.333 37.162 161.333 26.9266V0.831543H170.91V25.4147C170.91 31.4773 173.134 33.9795 177.477 33.9795C182.818 33.9795 186.441 30.1998 186.441 23.9104V0.831543H196.072V41.1609H186.835H186.827Z" fill="#58509D"/>
<path d="M209.765 0.831533V6.56155H209.984C212.934 2.22246 217.163 0 222.958 0C231.529 0 236.038 4.89849 236.038 15.1339V41.1685H226.408V16.6307C226.408 10.568 224.237 8.0054 219.561 8.0054C213.88 8.0054 210.15 11.8985 210.15 17.7419V41.1609H200.573V0.831533H209.757H209.765Z" fill="#58509D"/>
<path d="M245.668 28.703V8.67819H238.542V0.831543H269.385V8.67819H255.299V27.2592C255.299 32.2106 257.076 33.8207 261.593 33.8207C263.877 33.8207 266.215 33.3747 268.439 32.649H268.659V40.4957C265.655 41.4935 262.032 42 258.529 42C249.345 42 245.668 38.3261 245.668 28.703Z" fill="#58509D"/>
<path d="M270.331 30.2073C270.331 22.973 274.62 18.5281 286.527 17.5832L295.991 16.8575V14.7408C295.991 10.122 293.654 7.61987 289.092 7.61987C284.916 7.61987 282.359 9.62311 281.852 12.9039H272.169C272.835 4.83801 279.348 0 289.538 0C300.561 0 305.463 5.11771 305.463 16.1847V31.5907C305.463 33.4276 306.023 34.04 307.634 34.04C308.247 34.04 308.746 33.987 309.306 33.8736H309.472V41.3801C307.967 41.6598 306.635 41.8261 305.13 41.8261C299.895 41.8261 297.391 39.9892 297.391 35.9827V35.4233H297.224C294.44 39.4298 289.879 41.9849 284.084 41.9849C276.292 41.9849 270.331 37.865 270.331 30.1922V30.2073ZM286.255 34.486C291.989 34.486 295.999 30.6458 295.999 25.0821V23.2451L287.708 23.9708C282.14 24.4698 280.195 26.1404 280.195 29.5346C280.195 32.649 282.367 34.486 286.263 34.486H286.255Z" fill="#58509D"/>
<path d="M321.38 0.831533V6.56155H321.599C324.549 2.22246 328.778 0 334.573 0C343.144 0 347.653 4.89849 347.653 15.1339V41.1685H338.023V16.6307C338.023 10.568 335.852 8.0054 331.176 8.0054C325.495 8.0054 321.765 11.8985 321.765 17.7419V41.1609H312.188V0.831533H321.372H321.38Z" fill="#58509D"/>
<path d="M357.284 28.703V8.67819H350.157V0.831543H381V8.67819H366.914V27.2592C366.914 32.2106 368.692 33.8207 373.208 33.8207C375.493 33.8207 377.83 33.3747 380.054 32.649H380.274V40.4957C377.27 41.4935 373.647 42 370.144 42C360.96 42 357.284 38.3261 357.284 28.703Z" fill="#58509D"/>
<path d="M138.229 0C125.868 0 118.356 8.89741 118.356 20.9698C118.356 33.0421 125.868 42 138.229 42C150.591 42 158.05 33.0421 158.05 20.9698C158.05 8.89741 150.583 0 138.229 0ZM140.65 21.4309L134.394 27.6825L131.489 24.7797L137.745 18.5281L137.639 18.46L134.84 18.5961L134.802 15.2473H143.895L143.933 15.2851V24.3715L140.65 24.4093L140.756 21.5443L140.65 21.4384V21.4309Z" fill="#58509D"/>
</svg>
