<svg width="83" height="108" viewBox="0 0 83 108" fill="none" xmlns="http://www.w3.org/2000/svg">
<circle cx="41.1999" cy="41.1999" r="39.1999" stroke="#F5F5F5" stroke-width="4"/>
<path d="M62.0249 64.5769V59.4728C62.0249 56.7654 60.9494 54.1688 59.0349 52.2544C57.1205 50.34 54.524 49.2645 51.8166 49.2645H31.4C28.6925 49.2645 26.096 50.34 24.1816 52.2544C22.2672 54.1688 21.1917 56.7654 21.1917 59.4728V64.5769M51.8166 28.8478C51.8166 34.4857 47.2462 39.0561 41.6083 39.0561C35.9704 39.0561 31.4 34.4857 31.4 28.8478C31.4 23.2099 35.9704 18.6395 41.6083 18.6395C47.2462 18.6395 51.8166 23.2099 51.8166 28.8478Z" stroke="#F5F5F5" stroke-width="4" stroke-linecap="round" stroke-linejoin="round"/>
<path d="M16.3878 89.4546V104H14.044L7.19034 94.0924H7.0696V104H4.43466V89.4546H6.79261L13.6392 99.3693H13.767V89.4546H16.3878ZM23.9038 104.213C22.8384 104.213 21.9151 103.979 21.1339 103.51C20.3526 103.041 19.7466 102.385 19.3157 101.543C18.8896 100.7 18.6765 99.715 18.6765 98.5881C18.6765 97.4612 18.8896 96.474 19.3157 95.6265C19.7466 94.7789 20.3526 94.1208 21.1339 93.652C21.9151 93.1833 22.8384 92.9489 23.9038 92.9489C24.9691 92.9489 25.8924 93.1833 26.6737 93.652C27.4549 94.1208 28.0586 94.7789 28.4847 95.6265C28.9156 96.474 29.131 97.4612 29.131 98.5881C29.131 99.715 28.9156 100.7 28.4847 101.543C28.0586 102.385 27.4549 103.041 26.6737 103.51C25.8924 103.979 24.9691 104.213 23.9038 104.213ZM23.918 102.153C24.4956 102.153 24.9786 101.995 25.3668 101.678C25.7551 101.356 26.0439 100.925 26.2333 100.385C26.4274 99.8452 26.5245 99.2439 26.5245 98.581C26.5245 97.9134 26.4274 97.3097 26.2333 96.7699C26.0439 96.2254 25.7551 95.7922 25.3668 95.4702C24.9786 95.1482 24.4956 94.9872 23.918 94.9872C23.3261 94.9872 22.8337 95.1482 22.4407 95.4702C22.0524 95.7922 21.7612 96.2254 21.5671 96.7699C21.3777 97.3097 21.283 97.9134 21.283 98.581C21.283 99.2439 21.3777 99.8452 21.5671 100.385C21.7612 100.925 22.0524 101.356 22.4407 101.678C22.8337 101.995 23.3261 102.153 23.918 102.153ZM31.3132 104V93.0909H33.7706V94.9446H33.8984C34.1257 94.3196 34.5021 93.8319 35.0277 93.4816C35.5533 93.1265 36.1806 92.9489 36.9098 92.9489C37.6484 92.9489 38.2711 93.1288 38.7777 93.4887C39.2891 93.8438 39.6489 94.3291 39.8572 94.9446H39.9709C40.2124 94.3386 40.6196 93.8556 41.1925 93.4958C41.7701 93.1312 42.4543 92.9489 43.245 92.9489C44.2488 92.9489 45.0679 93.2661 45.7024 93.9006C46.3369 94.5351 46.6541 95.4607 46.6541 96.6776V104H44.076V97.0753C44.076 96.3982 43.8961 95.9034 43.5362 95.5909C43.1764 95.2737 42.736 95.1151 42.2152 95.1151C41.5949 95.1151 41.1096 95.3092 40.7592 95.6975C40.4136 96.081 40.2408 96.5805 40.2408 97.1961V104H37.7195V96.9688C37.7195 96.4053 37.549 95.9555 37.2081 95.6193C36.8719 95.2832 36.4316 95.1151 35.8871 95.1151C35.5178 95.1151 35.1816 95.2098 34.8786 95.3992C34.5755 95.5838 34.334 95.8466 34.1541 96.1875C33.9742 96.5237 33.8842 96.9167 33.8842 97.3665V104H31.3132ZM49.3761 104V89.4546H51.9471V94.8949H52.0536C52.1862 94.6298 52.3732 94.348 52.6147 94.0497C52.8562 93.7467 53.1829 93.4887 53.5948 93.2756C54.0067 93.0578 54.5323 92.9489 55.1715 92.9489C56.0143 92.9489 56.7743 93.1643 57.4513 93.5952C58.1332 94.0213 58.6729 94.6534 59.0707 95.4915C59.4731 96.3248 59.6744 97.3476 59.6744 98.5597C59.6744 99.7576 59.4779 100.776 59.0849 101.614C58.6919 102.452 58.1568 103.091 57.4798 103.531C56.8027 103.972 56.0356 104.192 55.1786 104.192C54.5536 104.192 54.0352 104.088 53.6232 103.879C53.2113 103.671 52.8799 103.42 52.6289 103.126C52.3827 102.828 52.1909 102.546 52.0536 102.281H51.9045V104H49.3761ZM51.8974 98.5455C51.8974 99.251 51.9968 99.8689 52.1957 100.399C52.3993 100.929 52.6905 101.344 53.0692 101.642C53.4528 101.936 53.9168 102.082 54.4613 102.082C55.0295 102.082 55.5053 101.931 55.8888 101.628C56.2724 101.32 56.5612 100.901 56.7553 100.371C56.9542 99.8357 57.0536 99.2273 57.0536 98.5455C57.0536 97.8684 56.9566 97.2671 56.7624 96.7415C56.5683 96.2159 56.2795 95.804 55.896 95.5057C55.5124 95.2074 55.0342 95.0583 54.4613 95.0583C53.9121 95.0583 53.4457 95.2027 53.0621 95.4915C52.6786 95.7803 52.3874 96.1852 52.1886 96.706C51.9944 97.2268 51.8974 97.84 51.8974 98.5455ZM61.8601 104V93.0909H64.353V94.9091H64.4666C64.6655 94.2794 65.0064 93.7941 65.4893 93.4532C65.977 93.1075 66.5334 92.9347 67.1584 92.9347C67.3004 92.9347 67.459 92.9418 67.6342 92.956C67.8142 92.9655 67.9633 92.982 68.0817 93.0057V95.3708C67.9728 95.3329 67.8 95.2997 67.5632 95.2713C67.3312 95.2382 67.1063 95.2216 66.8885 95.2216C66.4197 95.2216 65.9983 95.3234 65.6243 95.527C65.255 95.7259 64.9638 96.0029 64.7507 96.358C64.5376 96.7131 64.4311 97.1227 64.4311 97.5867V104H61.8601ZM74.1701 104.213C73.0763 104.213 72.1317 103.986 71.3363 103.531C70.5456 103.072 69.9371 102.423 69.511 101.585C69.0849 100.742 68.8718 99.7505 68.8718 98.6094C68.8718 97.4872 69.0849 96.5024 69.511 95.6549C69.9419 94.8026 70.5432 94.1397 71.315 93.6662C72.0868 93.188 72.9935 92.9489 74.0352 92.9489C74.7075 92.9489 75.342 93.0578 75.9386 93.2756C76.5399 93.4887 77.0702 93.8201 77.5295 94.2699C77.9935 94.7197 78.3581 95.2926 78.6232 95.9887C78.8884 96.68 79.021 97.5038 79.021 98.4603V99.2486H70.0792V97.5157H76.5565C76.5517 97.0232 76.4452 96.5853 76.2369 96.2017C76.0285 95.8135 75.7373 95.5081 75.3633 95.2855C74.994 95.063 74.5631 94.9517 74.0707 94.9517C73.5451 94.9517 73.0835 95.0796 72.6857 95.3353C72.288 95.5862 71.9779 95.9176 71.7553 96.3296C71.5375 96.7368 71.4263 97.1842 71.4215 97.6719V99.1847C71.4215 99.8192 71.5375 100.364 71.7695 100.818C72.0015 101.268 72.3259 101.614 72.7425 101.855C73.1592 102.092 73.6469 102.21 74.2056 102.21C74.5797 102.21 74.9182 102.158 75.2212 102.054C75.5243 101.945 75.7871 101.786 76.0096 101.578C76.2321 101.37 76.4002 101.112 76.5138 100.804L78.9144 101.074C78.7629 101.708 78.4741 102.262 78.0479 102.736C77.6265 103.205 77.0868 103.569 76.4286 103.83C75.7705 104.085 75.0176 104.213 74.1701 104.213Z" fill="#F5F5F5"/>
</svg>
