<svg width="64" height="64" viewBox="0 0 64 64" fill="none" xmlns="http://www.w3.org/2000/svg">
<circle cx="31.7733" cy="31.7733" r="31.7733" fill="#F4CF42"/>
<path d="M44.7024 29.8122C47.6222 30.4606 50.5312 28.6909 51.1998 25.8596C51.8684 23.0283 50.0434 20.2075 47.1237 19.5591C44.2039 18.9108 41.2949 20.6804 40.6263 23.5117C39.9577 26.343 41.7826 29.1639 44.7024 29.8122Z" stroke="#58509D" stroke-linecap="round" stroke-linejoin="round"/>
<path d="M16.0186 15.603H12.6055V26.4777C12.6055 31.857 17.1025 36.2178 22.6499 36.2178C28.1972 36.2178 32.6943 31.857 32.6943 26.4777V15.603H29.2811" stroke="#58509D" stroke-linecap="round" stroke-linejoin="round"/>
<path d="M22.845 36.3123V39.967C22.845 46.1481 28.0123 51.1586 34.3864 51.1586C40.7606 51.1586 45.9278 46.1481 45.9278 39.967V30.5439" stroke="#58509D" stroke-linecap="round" stroke-linejoin="round"/>
</svg>
