<svg width="64" height="64" viewBox="0 0 64 64" fill="none" xmlns="http://www.w3.org/2000/svg">
<circle cx="31.7733" cy="31.7733" r="31.7733" fill="#F4CF42"/>
<path d="M26.9674 49.8741C25.0496 51.0736 22.7644 51.5965 20.4959 51.3547C18.2274 51.1126 16.114 50.1207 14.5111 48.5453L13.1097 47.2166C12.4954 46.6072 12.1514 45.7889 12.1514 44.9368C12.1514 44.0847 12.4954 43.2661 13.1097 42.657L19.0576 36.9496C19.6808 36.3558 20.5195 36.0231 21.3932 36.0231C22.2669 36.0231 23.1056 36.3558 23.7287 36.9496C24.3571 37.5454 25.2011 37.879 26.0799 37.879C26.9587 37.879 27.8026 37.5454 28.431 36.9496L37.7732 27.8905C38.0849 27.5927 38.3324 27.2378 38.5013 26.8464C38.6702 26.455 38.7572 26.0349 38.7572 25.6106C38.7572 25.1863 38.6702 24.7663 38.5013 24.3749C38.3324 23.9835 38.0849 23.6285 37.7732 23.3307C37.1608 22.7265 36.8177 21.9132 36.8177 21.066C36.8177 20.2187 37.1608 19.4054 37.7732 18.8012L43.6899 13.0637C44.3184 12.468 45.1622 12.1344 46.041 12.1344C46.92 12.1344 47.7639 12.468 48.3923 13.0637L49.7626 14.4226C51.3869 15.9769 52.4098 18.0263 52.6594 20.2261C52.9091 22.4258 52.3698 24.6418 51.1325 26.5014C44.6863 35.7138 36.4842 43.6468 26.9674 49.8741Z" stroke="#58509D" stroke-linecap="round" stroke-linejoin="round"/>
</svg>
