<svg width="64" height="64" viewBox="0 0 64 64" fill="none" xmlns="http://www.w3.org/2000/svg">
<circle cx="31.7733" cy="31.7733" r="31.7733" fill="#F4CF42"/>
<path d="M46.1299 37.2579H21.3771L18.3511 22.1278H48.6112C48.8328 22.1286 49.0509 22.1779 49.2513 22.2724C49.4513 22.3667 49.6283 22.5039 49.7696 22.6742C49.9112 22.8444 50.0135 23.0436 50.0695 23.2576C50.1255 23.4717 50.1339 23.6955 50.094 23.9132L47.6127 36.0173C47.5549 36.3672 47.3733 36.6849 47.1013 36.9125C46.8292 37.1401 46.4846 37.2627 46.1299 37.2579Z" stroke="#58509D" stroke-linecap="round" stroke-linejoin="round"/>
<path d="M18.3512 22.1278L17.0803 17.2862C17.0105 16.9444 16.8248 16.6373 16.5546 16.4167C16.2844 16.1961 15.9463 16.0757 15.5975 16.0757H10.7861" stroke="#58509D" stroke-linecap="round" stroke-linejoin="round"/>
<path d="M21.3774 37.2579L22.6484 43.6126C22.7181 43.9544 22.9038 44.2615 23.174 44.4821C23.4442 44.7026 23.7823 44.823 24.1311 44.823H42.5595" stroke="#58509D" stroke-linecap="round" stroke-linejoin="round"/>
<path d="M41.0462 55.4141C40.2107 55.4141 39.5332 54.7366 39.5332 53.9011C39.5332 53.0656 40.2107 52.3881 41.0462 52.3881C41.882 52.3881 42.5592 53.0656 42.5592 53.9011C42.5592 54.7366 41.882 55.4141 41.0462 55.4141Z" stroke="#58509D" stroke-linecap="round" stroke-linejoin="round"/>
<path d="M25.9163 55.4141C25.0807 55.4141 24.4033 54.7366 24.4033 53.9011C24.4033 53.0656 25.0807 52.3881 25.9163 52.3881C26.7519 52.3881 27.4293 53.0656 27.4293 53.9011C27.4293 54.7366 26.7519 55.4141 25.9163 55.4141Z" stroke="#58509D" stroke-linecap="round" stroke-linejoin="round"/>
</svg>
