<svg width="64" height="64" viewBox="0 0 64 64" fill="none" xmlns="http://www.w3.org/2000/svg">
<circle cx="31.7733" cy="31.7733" r="31.7733" fill="#F4CF42"/>
<path d="M12.1514 33.2863H52.719" stroke="#58509D" stroke-linecap="round" stroke-linejoin="round"/>
<path d="M23.0734 12.1041H41.797C44.6938 12.1041 47.4718 13.22 49.5201 15.2062C51.5685 17.1924 52.719 19.8863 52.719 22.6952C52.719 23.4978 52.3901 24.2675 51.805 24.835C51.2199 25.4024 50.426 25.7212 49.5984 25.7212H15.272C14.4443 25.7212 13.6506 25.4024 13.0654 24.835C12.4801 24.2675 12.1514 23.4978 12.1514 22.6952C12.1514 19.8863 13.3021 17.1924 15.3504 15.2062C17.3986 13.22 20.1767 12.1041 23.0734 12.1041Z" stroke="#58509D" stroke-linecap="round" stroke-linejoin="round"/>
<path d="M51.1587 40.8514H32.4352L27.7543 45.3904L18.3925 40.8514H13.7117C13.2978 40.8514 12.901 41.0109 12.6084 41.2944C12.3158 41.5782 12.1514 41.9631 12.1514 42.3644C12.1514 44.7719 13.1377 47.0811 14.8934 48.7835C16.649 50.4859 19.0302 51.4425 21.5131 51.4425H43.3573C45.84 51.4425 48.2213 50.4859 49.977 48.7835C51.7326 47.0811 52.719 44.7719 52.719 42.3644C52.719 41.9631 52.5546 41.5782 52.2622 41.2944C51.9695 41.0109 51.5725 40.8514 51.1587 40.8514Z" stroke="#58509D" stroke-linecap="round" stroke-linejoin="round"/>
</svg>
