<svg width="64" height="64" viewBox="0 0 64 64" fill="none" xmlns="http://www.w3.org/2000/svg">
<circle cx="31.7733" cy="31.7733" r="31.7733" fill="#F4CF42"/>
<path d="M32.4352 14.8583L52.719 23.6468L32.4352 32.4352L12.1514 23.6468L32.4352 14.8583Z" stroke="#58509D" stroke-linecap="round" stroke-linejoin="round"/>
<path d="M21.3547 27.6561L21.3748 37.2182C21.3748 37.2182 24.7237 41.6499 32.4343 41.6499C40.145 41.6499 43.5118 37.2182 43.5118 37.2182L43.5096 27.6561" stroke="#58509D" stroke-linecap="round" stroke-linejoin="round"/>
<path d="M15.8813 43.6734V25.2912" stroke="#58509D" stroke-linecap="round" stroke-linejoin="round"/>
<path d="M15.8834 51.1375C17.9446 51.1375 19.6154 49.4668 19.6154 47.4056C19.6154 45.3445 17.9446 43.6734 15.8834 43.6734C13.8223 43.6734 12.1514 45.3445 12.1514 47.4056C12.1514 49.4668 13.8223 51.1375 15.8834 51.1375Z" stroke="#58509D" stroke-linecap="round" stroke-linejoin="round"/>
</svg>
