<svg width="64" height="64" viewBox="0 0 64 64" fill="none" xmlns="http://www.w3.org/2000/svg">
<circle cx="31.7733" cy="31.7733" r="31.7733" fill="#F4CF42"/>
<path d="M26.1937 32.5298C25.7629 32.5298 25.4136 32.1911 25.4136 31.7733C25.4136 31.3555 25.7629 31.0168 26.1937 31.0168" stroke="#58509D" stroke-linecap="round" stroke-linejoin="round"/>
<path d="M26.1938 32.5298C26.6247 32.5298 26.974 32.1911 26.974 31.7733C26.974 31.3555 26.6247 31.0168 26.1938 31.0168" stroke="#58509D" stroke-linecap="round" stroke-linejoin="round"/>
<path d="M38.6766 32.5298C38.2458 32.5298 37.8965 32.1911 37.8965 31.7733C37.8965 31.3555 38.2458 31.0168 38.6766 31.0168" stroke="#58509D" stroke-linecap="round" stroke-linejoin="round"/>
<path d="M38.6768 32.5298C39.1076 32.5298 39.4569 32.1911 39.4569 31.7733C39.4569 31.3555 39.1076 31.0168 38.6768 31.0168" stroke="#58509D" stroke-linecap="round" stroke-linejoin="round"/>
<path d="M24.6338 50.5625C26.0793 51.1299 27.6594 51.4425 29.3147 51.4425H35.5559C37.2112 51.4425 38.7912 51.1299 40.2367 50.5625" stroke="#58509D" stroke-linecap="round" stroke-linejoin="round"/>
<path d="M16.832 33.2863V12.1041L29.7918 21.3527" stroke="#58509D" stroke-linecap="round" stroke-linejoin="round"/>
<path d="M48.0381 33.2863V12.1041L35.1206 21.3527" stroke="#58509D" stroke-linecap="round" stroke-linejoin="round"/>
<path d="M23.1313 24.2082C25.417 22.351 28.7385 21.1822 32.4353 21.1822C36.1322 21.1822 39.4537 22.351 41.7393 24.2082" stroke="#58509D" stroke-linecap="round" stroke-linejoin="round"/>
<path d="M12.1514 39.3384H23.0734" stroke="#58509D" stroke-linecap="round" stroke-linejoin="round"/>
<path d="M23.0732 45.3904L13.7114 49.9295" stroke="#58509D" stroke-linecap="round" stroke-linejoin="round"/>
<path d="M41.7969 39.3384H52.7189" stroke="#58509D" stroke-linecap="round" stroke-linejoin="round"/>
<path d="M41.7969 45.3904L51.1586 49.9295" stroke="#58509D" stroke-linecap="round" stroke-linejoin="round"/>
<path d="M34.7756 39.3384H30.0947L32.4352 40.8514L34.7756 39.3384Z" stroke="#58509D" stroke-linecap="round" stroke-linejoin="round"/>
</svg>
