<svg width="64" height="64" viewBox="0 0 64 64" fill="none" xmlns="http://www.w3.org/2000/svg">
<circle cx="31.7733" cy="31.7733" r="31.7733" fill="#F4CF42"/>
<path d="M17.498 28.5582L20.1666 49.8425C20.2614 50.6267 20.6415 51.3485 21.2345 51.8703C21.8275 52.3921 22.5919 52.6776 23.3818 52.6718H40.197C40.9869 52.6776 41.7514 52.3921 42.3442 51.8703C42.9371 51.3485 43.3175 50.6267 43.4123 49.8425L46.0487 28.5582" stroke="#58509D" stroke-linecap="round" stroke-linejoin="round"/>
<path d="M43.4763 19.2989C43.8541 19.1983 44.2428 19.1443 44.6338 19.1381L44.5052 19.106C45.7842 19.106 47.0111 19.6141 47.9155 20.5185C48.8199 21.423 49.3279 22.6496 49.3279 23.9287C49.3279 25.2078 48.8199 26.4345 47.9155 27.3389C47.0111 28.2433 45.7842 28.7514 44.5052 28.7514H18.9126C17.6335 28.7514 16.4068 28.2755 15.5024 27.371C14.598 26.4666 14.0898 25.2399 14.0898 23.9608C14.0898 22.6818 14.598 21.4551 15.5024 20.5507C16.4068 19.6462 17.6335 19.1381 18.9126 19.1381C19.325 19.1389 19.7357 19.1929 20.1343 19.2989C19.8405 18.596 19.6876 17.8422 19.6842 17.0804C19.7426 15.4143 20.4457 13.836 21.6454 12.6783C22.845 11.5207 24.4474 10.8742 26.1145 10.8752C27.2778 10.8783 28.4184 11.1969 29.4149 11.7971C30.4114 12.3972 31.2265 13.2564 31.7732 14.2832C32.3199 13.2564 33.135 12.3972 34.1314 11.7971C35.1279 11.1969 36.2686 10.8783 37.4319 10.8752C39.1101 10.8574 40.7288 11.4964 41.9424 12.6558C43.1558 13.8152 43.868 15.4031 43.9265 17.0804C43.9229 17.8422 43.7702 18.596 43.4763 19.2989Z" stroke="#58509D" stroke-linecap="round" stroke-linejoin="round"/>
<path d="M31.7729 28.5582V52.6718" stroke="#58509D"/>
</svg>
