<svg width="64" height="64" viewBox="0 0 64 64" fill="none" xmlns="http://www.w3.org/2000/svg">
<circle cx="31.7733" cy="31.7733" r="31.7733" fill="#F4CF42"/>
<path d="M46.4774 12.1514H18.3921C16.6686 12.1514 15.2715 13.5485 15.2715 15.272V44.9176C15.2715 46.6411 16.6686 48.0382 18.3921 48.0382H46.4774C48.2009 48.0382 49.598 46.6411 49.598 44.9176V15.272C49.598 13.5485 48.2009 12.1514 46.4774 12.1514Z" stroke="#58509D" stroke-linecap="round" stroke-linejoin="round"/>
<path d="M21.5127 48.0381V52.719" stroke="#58509D" stroke-linecap="round" stroke-linejoin="round"/>
<path d="M43.3569 48.0381V52.719" stroke="#58509D" stroke-linecap="round" stroke-linejoin="round"/>
<path d="M15.2715 32.4352H49.598" stroke="#58509D" stroke-linecap="round" stroke-linejoin="round"/>
<path d="M23.0731 41.0168C22.6423 41.0168 22.293 40.6676 22.293 40.2367C22.293 39.8058 22.6423 39.4565 23.0731 39.4565" stroke="#58509D" stroke-linecap="round" stroke-linejoin="round"/>
<path d="M23.0732 41.0168C23.5041 41.0168 23.8534 40.6676 23.8534 40.2367C23.8534 39.8058 23.5041 39.4565 23.0732 39.4565" stroke="#58509D" stroke-linecap="round" stroke-linejoin="round"/>
<path d="M41.7963 41.0168C41.3654 41.0168 41.0161 40.6676 41.0161 40.2367C41.0161 39.8058 41.3654 39.4565 41.7963 39.4565" stroke="#58509D" stroke-linecap="round" stroke-linejoin="round"/>
<path d="M41.7964 41.0168C42.2273 41.0168 42.5765 40.6676 42.5765 40.2367C42.5765 39.8058 42.2273 39.4565 41.7964 39.4565" stroke="#58509D" stroke-linecap="round" stroke-linejoin="round"/>
</svg>
