<svg width="64" height="64" viewBox="0 0 64 64" fill="none" xmlns="http://www.w3.org/2000/svg">
<circle cx="31.7733" cy="31.7733" r="31.7733" fill="#F4CF42"/>
<path d="M20.6663 42.8806H16.2785C15.1817 42.7892 14.1592 42.289 13.4139 41.479C12.6686 40.6691 12.2549 39.6086 12.2549 38.508C12.2549 37.4073 12.6686 36.3468 13.4139 35.5369C14.1592 34.7269 15.1817 34.2267 16.2785 34.1354H23.2384L27.7169 29.6569L15.4313 22.0918C14.4854 21.5071 13.7969 20.5851 13.5048 19.5122C13.2127 18.4393 13.3388 17.2955 13.8577 16.3121C14.0868 15.7492 14.4287 15.2393 14.8625 14.8137C15.2962 14.3882 15.8125 14.056 16.3796 13.8376C16.9467 13.6193 17.5525 13.5195 18.1596 13.5443C18.7668 13.5691 19.3624 13.7181 19.9098 13.982L35.9477 21.3958L43.6944 13.5584C44.529 12.7237 45.661 12.2548 46.8414 12.2548C48.0219 12.2548 49.1539 12.7237 49.9885 13.5584C50.8231 14.393 51.2921 15.5251 51.2921 16.7055C51.2921 17.8858 50.8231 19.0179 49.9885 19.8525L42.1511 27.5992L49.5649 43.7884C49.8088 44.3274 49.9419 44.9102 49.9561 45.5018C49.9707 46.0931 49.8663 46.6816 49.6487 47.232C49.4314 47.7822 49.1058 48.2833 48.6913 48.7054C48.2764 49.1275 47.7813 49.4622 47.2348 49.6892C46.2514 50.2081 45.1075 50.334 44.0348 50.042C42.9618 49.75 42.0397 49.0613 41.4551 48.1156L33.89 35.8299L29.4115 40.3085V47.2684C29.3202 48.3653 28.8199 49.3878 28.01 50.1331C27.2001 50.8784 26.1396 51.2921 25.0389 51.2921C23.9382 51.2921 22.8777 50.8784 22.0678 50.1331C21.2579 49.3878 20.7576 48.3653 20.6663 47.2684V42.8806Z" stroke="#58509D" stroke-linecap="round" stroke-linejoin="round"/>
</svg>
